<svg data-v-fde0c5aa="" xmlns="http://www.w3.org/2000/svg" viewBox="0 0 300 300" class="iconLeft"><!----><defs data-v-fde0c5aa=""><!----></defs><rect data-v-fde0c5aa="" fill="#002538" x="0" y="0" width="300px" height="300px" class="logo-background-square"></rect><defs data-v-fde0c5aa=""><!----></defs><g data-v-fde0c5aa="" id="729afa0d-2c70-40a2-9ed0-c317cdd752e3" fill="#ffffff" transform="matrix(1.9404085874557495,0,0,1.9404085874557495,100.75066888626506,131.66313773701194)"><path d="M1.15 13.09L1.15 13.09Q1.01 13.09 0.90 12.98L0.90 12.98L0.90 12.98Q0.80 12.88 0.80 12.74L0.80 12.74L0.80 6.17L0.80 6.17Q0.80 6.02 0.90 5.92L0.90 5.92L0.90 5.92Q0.99 5.81 1.15 5.81L1.15 5.81L2.86 5.81L2.86 5.81Q3.01 5.81 3.12 5.92L3.12 5.92L3.12 5.92Q3.22 6.02 3.22 6.17L3.22 6.17L3.22 6.71L3.22 6.71Q3.61 6.27 4.14 6.04L4.14 6.04L4.14 6.04Q4.66 5.81 5.31 5.81L5.31 5.81L5.94 5.81L5.94 5.81Q6.09 5.81 6.19 5.91L6.19 5.91L6.19 5.91Q6.29 6.01 6.29 6.16L6.29 6.16L6.29 7.69L6.29 7.69Q6.29 7.83 6.19 7.93L6.19 7.93L6.19 7.93Q6.09 8.04 5.94 8.04L5.94 8.04L4.52 8.04L4.52 8.04Q3.96 8.04 3.66 8.34L3.66 8.34L3.66 8.34Q3.36 8.65 3.36 9.21L3.36 9.21L3.36 12.74L3.36 12.74Q3.36 12.89 3.25 12.99L3.25 12.99L3.25 12.99Q3.15 13.09 3.00 13.09L3.00 13.09L1.15 13.09ZM10.67 13.23L10.67 13.23Q8.96 13.23 7.98 12.31L7.98 12.31L7.98 12.31Q7 11.40 6.97 9.65L6.97 9.65L6.97 9.21L6.97 9.21Q7.03 7.55 8.01 6.61L8.01 6.61L8.01 6.61Q8.99 5.67 10.65 5.67L10.65 5.67L10.65 5.67Q11.86 5.67 12.69 6.15L12.69 6.15L12.69 6.15Q13.52 6.64 13.94 7.48L13.94 7.48L13.94 7.48Q14.35 8.33 14.35 9.41L14.35 9.41L14.35 9.76L14.35 9.76Q14.35 9.91 14.25 10.02L14.25 10.02L14.25 10.02Q14.14 10.12 13.99 10.12L13.99 10.12L9.55 10.12L9.55 10.21L9.55 10.21Q9.56 10.84 9.84 11.22L9.84 11.22L9.84 11.22Q10.12 11.61 10.64 11.61L10.64 11.61L10.64 11.61Q10.98 11.61 11.18 11.47L11.18 11.47L11.18 11.47Q11.38 11.34 11.56 11.13L11.56 11.13L11.56 11.13Q11.69 10.99 11.77 10.96L11.77 10.96L11.77 10.96Q11.84 10.92 12.01 10.92L12.01 10.92L13.85 10.92L13.85 10.92Q13.97 10.92 14.06 11.00L14.06 11.00L14.06 11.00Q14.15 11.07 14.15 11.19L14.15 11.19L14.15 11.19Q14.15 11.55 13.74 12.04L13.74 12.04L13.74 12.04Q13.33 12.53 12.54 12.88L12.54 12.88L12.54 12.88Q11.75 13.23 10.67 13.23L10.67 13.23ZM9.55 8.69L11.77 8.69L11.77 8.67L11.77 8.67Q11.77 7.99 11.48 7.62L11.48 7.62L11.48 7.62Q11.19 7.25 10.65 7.25L10.65 7.25L10.65 7.25Q10.12 7.25 9.84 7.62L9.84 7.62L9.84 7.62Q9.55 7.99 9.55 8.67L9.55 8.67L9.55 8.69ZM17.81 13.23L17.81 13.23Q17.07 13.23 16.46 12.94L16.46 12.94L16.46 12.94Q15.85 12.66 15.51 12.15L15.51 12.15L15.51 12.15Q15.16 11.65 15.16 11.05L15.16 11.05L15.16 11.05Q15.16 10.09 15.95 9.50L15.95 9.50L15.95 9.50Q16.74 8.90 18.13 8.68L18.13 8.68L19.87 8.41L19.87 8.25L19.87 8.25Q19.87 7.73 19.66 7.49L19.66 7.49L19.66 7.49Q19.45 7.25 18.94 7.25L18.94 7.25L18.94 7.25Q18.66 7.25 18.47 7.35L18.47 7.35L18.47 7.35Q18.28 7.45 18.05 7.64L18.05 7.64L18.05 7.64Q17.86 7.80 17.72 7.87L17.72 7.87L17.72 7.87Q17.67 7.97 17.58 7.97L17.58 7.97L15.96 7.97L15.96 7.97Q15.82 7.97 15.73 7.88L15.73 7.88L15.73 7.88Q15.64 7.78 15.65 7.66L15.65 7.66L15.65 7.66Q15.67 7.28 16.03 6.81L16.03 6.81L16.03 6.81Q16.39 6.34 17.14 6.01L17.14 6.01L17.14 6.01Q17.88 5.67 18.97 5.67L18.97 5.67L18.97 5.67Q20.71 5.67 21.55 6.43L21.55 6.43L21.55 6.43Q22.39 7.20 22.39 8.50L22.39 8.50L22.39 12.74L22.39 12.74Q22.39 12.88 22.29 12.98L22.29 12.98L22.29 12.98Q22.19 13.09 22.04 13.09L22.04 13.09L20.31 13.09L20.31 13.09Q20.17 13.09 20.07 12.98L20.07 12.98L20.07 12.98Q19.96 12.88 19.96 12.74L19.96 12.74L19.96 12.25L19.96 12.25Q19.66 12.68 19.11 12.96L19.11 12.96L19.11 12.96Q18.56 13.23 17.81 13.23L17.81 13.23ZM18.51 11.58L18.51 11.58Q19.12 11.58 19.51 11.17L19.51 11.17L19.51 11.17Q19.89 10.77 19.89 10.00L19.89 10.00L19.89 9.83L18.73 10.02L18.73 10.02Q17.56 10.25 17.56 10.86L17.56 10.86L17.56 10.86Q17.56 11.19 17.83 11.38L17.83 11.38L17.83 11.38Q18.10 11.58 18.51 11.58L18.51 11.58ZM26.64 13.23L26.64 13.23Q25.28 13.23 24.51 12.38L24.51 12.38L24.51 12.38Q23.73 11.52 23.67 9.94L23.67 9.94L23.66 9.45L23.67 8.95L23.67 8.95Q23.73 7.42 24.51 6.54L24.51 6.54L24.51 6.54Q25.30 5.67 26.64 5.67L26.64 5.67L26.64 5.67Q27.90 5.67 28.67 6.48L28.67 6.48L28.67 3.50L28.67 3.50Q28.67 3.35 28.78 3.25L28.78 3.25L28.78 3.25Q28.88 3.15 29.02 3.15L29.02 3.15L30.83 3.15L30.83 3.15Q30.98 3.15 31.09 3.25L31.09 3.25L31.09 3.25Q31.19 3.35 31.19 3.50L31.19 3.50L31.19 12.74L31.19 12.74Q31.19 12.89 31.09 12.99L31.09 12.99L31.09 12.99Q30.98 13.09 30.83 13.09L30.83 13.09L29.16 13.09L29.16 13.09Q29.02 13.09 28.92 12.98L28.92 12.98L28.92 12.98Q28.81 12.88 28.81 12.74L28.81 12.74L28.81 12.31L28.81 12.31Q28.06 13.23 26.64 13.23L26.64 13.23ZM27.45 11.28L27.45 11.28Q28.06 11.28 28.35 10.90L28.35 10.90L28.35 10.90Q28.64 10.51 28.67 9.93L28.67 9.93L28.67 9.93Q28.70 9.53 28.70 9.39L28.70 9.39L28.70 9.39Q28.70 9.24 28.67 8.88L28.67 8.88L28.67 8.88Q28.64 8.33 28.34 7.97L28.34 7.97L28.34 7.97Q28.04 7.62 27.45 7.62L27.45 7.62L27.45 7.62Q26.82 7.62 26.55 7.99L26.55 7.99L26.55 7.99Q26.28 8.36 26.24 9.02L26.24 9.02L26.22 9.45L26.24 9.88L26.24 9.88Q26.28 10.54 26.55 10.91L26.55 10.91L26.55 10.91Q26.82 11.28 27.45 11.28L27.45 11.28ZM34.16 15.75L34.16 15.75Q34.03 15.75 33.95 15.67L33.95 15.67L33.95 15.67Q33.87 15.58 33.87 15.46L33.87 15.46L33.87 15.46Q33.87 15.36 33.89 15.27L33.89 15.27L35 12.64L32.31 6.29L32.31 6.29Q32.27 6.17 32.27 6.13L32.27 6.13L32.27 6.13Q32.30 5.99 32.39 5.90L32.39 5.90L32.39 5.90Q32.48 5.81 32.61 5.81L32.61 5.81L34.27 5.81L34.27 5.81Q34.57 5.81 34.68 6.10L34.68 6.10L36.23 10.08L37.83 6.10L37.83 6.10Q37.97 5.81 38.25 5.81L38.25 5.81L39.90 5.81L39.90 5.81Q40.03 5.81 40.12 5.90L40.12 5.90L40.12 5.90Q40.21 5.99 40.21 6.10L40.21 6.10L40.21 6.10Q40.21 6.20 40.18 6.29L40.18 6.29L36.22 15.46L36.22 15.46Q36.08 15.75 35.78 15.75L35.78 15.75L34.16 15.75ZM45.84 13.09L45.84 13.09Q45.70 13.09 45.59 12.98L45.59 12.98L45.59 12.98Q45.49 12.88 45.49 12.74L45.49 12.74L45.49 11.20L41.15 11.20L41.15 11.20Q41.01 11.20 40.90 11.09L40.90 11.09L40.90 11.09Q40.80 10.99 40.80 10.85L40.80 10.85L40.80 9.44L40.80 9.44Q40.80 9.23 40.95 9.02L40.95 9.02L45.01 3.53L45.01 3.53Q45.21 3.29 45.53 3.29L45.53 3.29L47.66 3.29L47.66 3.29Q47.81 3.29 47.92 3.39L47.92 3.39L47.92 3.39Q48.02 3.49 48.02 3.64L48.02 3.64L48.02 9.03L49.25 9.03L49.25 9.03Q49.42 9.03 49.52 9.13L49.52 9.13L49.52 9.13Q49.62 9.24 49.62 9.38L49.62 9.38L49.62 10.85L49.62 10.85Q49.62 10.99 49.52 11.09L49.52 11.09L49.52 11.09Q49.42 11.20 49.27 11.20L49.27 11.20L48.02 11.20L48.02 12.74L48.02 12.74Q48.02 12.89 47.92 12.99L47.92 12.99L47.92 12.99Q47.81 13.09 47.66 13.09L47.66 13.09L45.84 13.09ZM45.54 5.98L43.29 9.13L45.54 9.13L45.54 5.98ZM51.17 9.94L51.17 9.94Q51.02 9.94 50.91 9.84L50.91 9.84L50.91 9.84Q50.81 9.74 50.81 9.59L50.81 9.59L50.81 8.19L50.81 8.19Q50.81 8.04 50.91 7.94L50.91 7.94L50.91 7.94Q51.02 7.84 51.17 7.84L51.17 7.84L55.58 7.84L55.58 7.84Q55.73 7.84 55.83 7.94L55.83 7.94L55.83 7.94Q55.93 8.04 55.93 8.19L55.93 8.19L55.93 9.59L55.93 9.59Q55.93 9.73 55.83 9.84L55.83 9.84L55.83 9.84Q55.73 9.94 55.58 9.94L55.58 9.94L51.17 9.94ZM60.23 13.23L60.23 13.23Q58.87 13.23 58.09 12.38L58.09 12.38L58.09 12.38Q57.32 11.52 57.26 9.94L57.26 9.94L57.25 9.45L57.26 8.95L57.26 8.95Q57.32 7.42 58.10 6.54L58.10 6.54L58.10 6.54Q58.88 5.67 60.23 5.67L60.23 5.67L60.23 5.67Q61.49 5.67 62.26 6.48L62.26 6.48L62.26 3.50L62.26 3.50Q62.26 3.35 62.36 3.25L62.36 3.25L62.36 3.25Q62.47 3.15 62.61 3.15L62.61 3.15L64.41 3.15L64.41 3.15Q64.57 3.15 64.67 3.25L64.67 3.25L64.67 3.25Q64.78 3.35 64.78 3.50L64.78 3.50L64.78 12.74L64.78 12.74Q64.78 12.89 64.67 12.99L64.67 12.99L64.67 12.99Q64.57 13.09 64.41 13.09L64.41 13.09L62.75 13.09L62.75 13.09Q62.61 13.09 62.50 12.98L62.50 12.98L62.50 12.98Q62.40 12.88 62.40 12.74L62.40 12.74L62.40 12.31L62.40 12.31Q61.64 13.23 60.23 13.23L60.23 13.23ZM61.04 11.28L61.04 11.28Q61.64 11.28 61.94 10.90L61.94 10.90L61.94 10.90Q62.23 10.51 62.26 9.93L62.26 9.93L62.26 9.93Q62.29 9.53 62.29 9.39L62.29 9.39L62.29 9.39Q62.29 9.24 62.26 8.88L62.26 8.88L62.26 8.88Q62.23 8.33 61.93 7.97L61.93 7.97L61.93 7.97Q61.63 7.62 61.04 7.62L61.04 7.62L61.04 7.62Q60.41 7.62 60.14 7.99L60.14 7.99L60.14 7.99Q59.86 8.36 59.82 9.02L59.82 9.02L59.81 9.45L59.82 9.88L59.82 9.88Q59.86 10.54 60.14 10.91L60.14 10.91L60.14 10.91Q60.41 11.28 61.04 11.28L61.04 11.28ZM69.79 13.23L69.79 13.23Q68.08 13.23 67.10 12.31L67.10 12.31L67.10 12.31Q66.12 11.40 66.09 9.65L66.09 9.65L66.09 9.21L66.09 9.21Q66.15 7.55 67.13 6.61L67.13 6.61L67.13 6.61Q68.11 5.67 69.78 5.67L69.78 5.67L69.78 5.67Q70.98 5.67 71.81 6.15L71.81 6.15L71.81 6.15Q72.65 6.64 73.06 7.48L73.06 7.48L73.06 7.48Q73.47 8.33 73.47 9.41L73.47 9.41L73.47 9.76L73.47 9.76Q73.47 9.91 73.37 10.02L73.37 10.02L73.37 10.02Q73.26 10.12 73.11 10.12L73.11 10.12L68.67 10.12L68.67 10.21L68.67 10.21Q68.68 10.84 68.96 11.22L68.96 11.22L68.96 11.22Q69.24 11.61 69.76 11.61L69.76 11.61L69.76 11.61Q70.10 11.61 70.30 11.47L70.30 11.47L70.30 11.47Q70.50 11.34 70.69 11.13L70.69 11.13L70.69 11.13Q70.81 10.99 70.89 10.96L70.89 10.96L70.89 10.96Q70.97 10.92 71.13 10.92L71.13 10.92L72.97 10.92L72.97 10.92Q73.09 10.92 73.19 11.00L73.19 11.00L73.19 11.00Q73.28 11.07 73.28 11.19L73.28 11.19L73.28 11.19Q73.28 11.55 72.86 12.04L72.86 12.04L72.86 12.04Q72.45 12.53 71.66 12.88L71.66 12.88L71.66 12.88Q70.87 13.23 69.79 13.23L69.79 13.23ZM68.67 8.69L70.90 8.69L70.90 8.67L70.90 8.67Q70.90 7.99 70.60 7.62L70.60 7.62L70.60 7.62Q70.31 7.25 69.78 7.25L69.78 7.25L69.78 7.25Q69.24 7.25 68.96 7.62L68.96 7.62L68.96 7.62Q68.67 7.99 68.67 8.67L68.67 8.67L68.67 8.69ZM77.34 13.09L77.34 13.09Q77.14 13.09 77.04 13.00L77.04 13.00L77.04 13.00Q76.93 12.91 76.86 12.74L76.86 12.74L74.20 6.24L74.20 6.24Q74.19 6.20 74.19 6.13L74.19 6.13L74.19 6.13Q74.19 5.99 74.28 5.90L74.28 5.90L74.28 5.90Q74.37 5.81 74.51 5.81L74.51 5.81L76.17 5.81L76.17 5.81Q76.47 5.81 76.59 6.10L76.59 6.10L78.12 10.29L79.66 6.10L79.66 6.10Q79.70 5.99 79.80 5.90L79.80 5.90L79.80 5.90Q79.90 5.81 80.07 5.81L80.07 5.81L81.75 5.81L81.75 5.81Q81.87 5.81 81.97 5.90L81.97 5.90L81.97 5.90Q82.07 5.99 82.07 6.13L82.07 6.13L82.04 6.24L79.39 12.74L79.39 12.74Q79.32 12.91 79.21 13.00L79.21 13.00L79.21 13.00Q79.10 13.09 78.90 13.09L78.90 13.09L77.34 13.09Z"></path></g><defs data-v-fde0c5aa=""><!----></defs><g data-v-fde0c5aa="" id="dc0a90e0-4848-4311-82f5-87d5f497bf08" stroke="none" fill="#F6575E" transform="matrix(1.540718674659729,0,0,1.540718674659729,40,125.3492734922517)"><path d="M2.467 11.737l9.042-4.657v1.345l-7.62 3.819v.039l7.62 3.82v1.344L2.467 12.79v-1.053zM12.781 18.226l5.436-14.128h1.325l-5.456 14.128h-1.305zM29.815 12.808l-9.042 4.638v-1.344l7.678-3.82v-.039l-7.678-3.819V7.08l9.042 4.638v1.09z"></path><circle cx="4.266" cy="20.905" r="2.104"></circle><path d="M4.166 27.901l-2.033-4.408S0 23.521 0 25.484v2.417h4.166zM4.365 27.901l2.033-4.408s2.133.028 2.133 1.991v2.417H4.365zM4.266 23.493H2.801l1.465 3.242 1.464-3.242z"></path><circle cx="16" cy="20.905" r="2.104"></circle><path d="M15.9 27.901l-2.033-4.408s-2.133.028-2.133 1.991v2.417H15.9zM16.1 27.901l2.033-4.408s2.133.028 2.133 1.991v2.417H16.1zM16 23.493h-1.465L16 26.735l1.465-3.242z"></path><circle cx="27.734" cy="20.905" r="2.104"></circle><path d="M27.635 27.901l-2.033-4.408s-2.133.028-2.133 1.991v2.417h4.166zM27.834 27.901l2.033-4.408S32 23.521 32 25.484v2.417h-4.166zM27.734 23.493H26.27l1.464 3.242 1.465-3.242z"></path></g><!----></svg>